<svg width="174" height="174" viewBox="0 0 174 174" fill="none" xmlns="http://www.w3.org/2000/svg">
<g clip-path="url(#clip0_263_839)">
<path d="M150.807 110.846C147.714 105.075 144.723 99.5501 141.755 94.0179C141.158 92.9175 140.738 92.1404 140.217 90.6376C139.819 89.5257 139.025 87.1494 140.308 86.975C141.382 86.9415 142.15 87.0547 143.373 88.8675C146.509 93.5647 148.921 98.6904 151.341 103.763C153.476 108.244 155.035 111.693 156.689 115.769C157.461 117.672 156.741 118.756 154.876 119.087C153.202 119.384 151.489 119.718 149.791 119.694C143.667 119.642 137.569 119.431 131.439 119.28C130.677 119.266 130.082 119.301 129.179 119.154C128.085 118.967 127.279 118.891 127.245 117.816C127.203 116.794 128.597 116.409 129.337 116.354C135.511 115.759 148.267 114.745 148.934 114.536C146.06 112.129 143.451 109.842 140.71 107.696C121.55 92.8456 101.494 79.4871 78.5135 71.0568C60.3227 64.3833 41.6557 59.9787 22.3262 58.4568C21.1853 58.3596 20.0386 58.1633 18.9378 57.9525C17.4419 57.6888 16.7104 57.2868 16.7934 56.5037C17.1477 55.0551 18.2081 54.9756 19.0486 54.8388C20.7224 54.5421 22.4812 54.5973 24.1867 54.644C46.9947 55.5063 68.5964 61.4657 89.5053 70.2919C110.966 79.3493 129.519 92.8249 146.991 107.926C147.882 108.758 150.278 110.607 150.807 110.846Z" fill="white"/>
</g>
<defs>
<clipPath id="clip0_263_839">
<rect width="138.738" height="138.738" fill="white" transform="translate(132.404 0.0286865) rotate(72.6211)"/>
</clipPath>
</defs>
</svg>
