<svg width="16" height="16" viewBox="0 0 16 16" fill="none" xmlns="http://www.w3.org/2000/svg">
<g clip-path="url(#clip0_97_2356)">
<path d="M11.276 0.666748H12.6667C13.0807 0.666748 13.4767 0.742748 13.8427 0.881415L10.0573 4.66675H7.276L11.276 0.666748ZM16 4.66675V4.00008C16 3.06675 15.614 2.22141 14.9933 1.61608L11.9427 4.66675H16ZM7.01467 0.666748L2.95867 4.66675H5.39067L9.39067 0.666748H7.01467ZM1.06 4.66675L5.116 0.666748H3.33333C1.49533 0.666748 0 2.16208 0 4.00008V4.66675H1.06ZM16 6.00008V12.0001C16 13.8381 14.5047 15.3334 12.6667 15.3334H3.33333C1.49533 15.3334 0 13.8381 0 12.0001V6.00008H16ZM10.0313 10.1334L6.942 8.48008C6.52733 8.23142 6 8.53008 6 9.01342V12.3207C6 12.8041 6.52733 13.1027 6.942 12.8541L10.0313 11.2007C10.434 10.9594 10.434 10.3754 10.0313 10.1341V10.1334Z" fill="#252C32"/>
</g>
<defs>
<clipPath id="clip0_97_2356">
<rect width="16" height="16" fill="white"/>
</clipPath>
</defs>
</svg>
